<svg xmlns="http://www.w3.org/2000/svg" xmlns:xlink="http://www.w3.org/1999/xlink" width="322" height="301" viewBox="0 0 322 301">
  <defs>
    <filter id="Rectangle_187" x="0" y="0" width="322" height="301" filterUnits="userSpaceOnUse">
      <feOffset dy="25" input="SourceAlpha"/>
      <feGaussianBlur stdDeviation="15" result="blur"/>
      <feFlood flood-opacity="0.051"/>
      <feComposite operator="in" in2="blur"/>
      <feComposite in="SourceGraphic"/>
    </filter>
    <linearGradient id="linear-gradient" x1="0.5" x2="0.5" y2="1" gradientUnits="objectBoundingBox">
      <stop offset="0" stop-color="#ff2366" stop-opacity="0.271"/>
      <stop offset="1" stop-color="#ff2366" stop-opacity="0.059"/>
    </linearGradient>
  </defs>
  <g id="Group_8261" data-name="Group 8261" transform="translate(-1054 -133)">
    <g transform="matrix(1, 0, 0, 1, 1054, 133)" filter="url(#Rectangle_187)">
      <rect id="Rectangle_187-2" data-name="Rectangle 187" width="232" height="211" rx="10" transform="translate(45 20)" fill="#fff"/>
    </g>
    <text id="Total_User" data-name="Total User" transform="translate(1117 180)" fill="#707070" font-size="9" font-family="SegoeUI, Segoe UI" letter-spacing="0.02em"><tspan x="0" y="0">Total User</tspan></text>
    <text id="_1.2M" data-name="1.2M" transform="translate(1117 203)" fill="#263265" font-size="19" font-family="SegoeUI, Segoe UI" letter-spacing="0.02em"><tspan x="0" y="0">1.2M</tspan></text>
    <path id="Path_335" data-name="Path 335" d="M3427.938-22314.479s-8.035-17.809-16.07-17.809-6.251,17.809-16.073,17.809-11.756-4.932-23.215-17.809-9.525-34.865-22.62-33.715c-13.1,1.176-16.072,42.617-29.763,38.41s-15.031-44.25-25-55.264-5.953,13.105-14.882,11.223c-8.928-1.854-9.671-24.35-20.833-18.721s-13.393,35.123-23.81,41.213-3.429-16.354-15.4-16.016c-14.373.318-8.648-19.244-24.823-17.7" transform="translate(-2095.928 22621.563)" fill="none" stroke="#ff2366" stroke-linecap="round" stroke-width="2"/>
    <path id="Path_362" data-name="Path 362" d="M3427.935-22314.479s-8.035-17.809-16.07-17.809-6.251,17.809-16.073,17.809-11.756-4.932-23.215-17.809-9.525-34.865-22.62-33.715c-13.095,1.176-16.072,42.617-29.762,38.41s-15.031-44.25-25-55.264-5.953,13.105-14.882,11.223c-8.929-1.854-9.671-24.35-20.833-18.721s-13.393,35.123-23.81,41.213-3.429-16.354-15.4-16.016c-14.372.318-8.648-19.244-24.823-17.7-.046,19.922,0,114.846,0,114.846s-.291,4.66,2.059,7.559,7.344,4.039,7.344,4.039h213.469s5.1-1.117,7.5-3.588,2.111-6.293,2.111-6.293Z" transform="translate(-2095.926 22621.563)" fill="url(#linear-gradient)"/>
  </g>
</svg>
