<svg xmlns="http://www.w3.org/2000/svg" width="20.579" height="19.654" viewBox="0 0 20.579 19.654">
  <g id="Group_8421" data-name="Group 8421" transform="translate(-1266.339 -7280.029)">
    <g id="Group_8419" data-name="Group 8419" transform="translate(1266.627 7286.121)">
      <g id="Group_8223" data-name="Group 8223">
        <path id="Path_2197" data-name="Path 2197" d="M1258.529,26.944v7.274a.325.325,0,0,1-.326.325h-3.755a.325.325,0,0,1-.325-.325V27.453c0-1.78-.635-3-2.231-3a2.409,2.409,0,0,0-2.259,1.611,3,3,0,0,0-.146,1.074v7.076a.325.325,0,0,1-.325.325h-3.754a.324.324,0,0,1-.325-.325c.008-1.8.046-10.543.008-12.6a.324.324,0,0,1,.325-.33h3.746a.326.326,0,0,1,.325.325v1.553c-.009.015-.021.029-.03.043h.03v-.043a4.375,4.375,0,0,1,3.971-2.189c2.9,0,5.072,1.894,5.072,5.964Zm-19.966,7.6h3.755a.325.325,0,0,0,.325-.325v-12.6a.326.326,0,0,0-.325-.325h-3.755a.325.325,0,0,0-.325.325v12.6A.325.325,0,0,0,1238.563,34.543Z" transform="translate(-1238.238 -20.98)" fill="#fff"/>
      </g>
    </g>
    <g id="Group_8420" data-name="Group 8420" transform="translate(1266.339 7280.029)">
      <ellipse id="Ellipse_78" data-name="Ellipse 78" cx="2.358" cy="2.358" rx="2.358" ry="2.358" fill="#fff"/>
    </g>
  </g>
</svg>
