<svg id="slack" xmlns="http://www.w3.org/2000/svg" width="120.411" height="36.071" viewBox="0 0 120.411 36.071">
  <path id="Path_360" data-name="Path 360" d="M177.682,39.595c0-3.582,2.612-6.083,7.357-6.083a11.81,11.81,0,0,1,6.549,1.83.836.836,0,0,1,.315,1.027c-.252.628-.714,1.574-1.045,2.188a.715.715,0,0,1-.938.183,11.894,11.894,0,0,0-3.792-1.392,8.068,8.068,0,0,0-1.051-.045,2.6,2.6,0,0,0-2.584,1.374,1.629,1.629,0,0,0-.115.55c-.033,1.22,1.664,1.661,3.721,2.014,3.824.655,6.717,1.776,6.717,5.712,0,3.342-2.656,6.363-7.861,6.27a11.4,11.4,0,0,1-7.169-2.354,1.073,1.073,0,0,1-.275-1.152,8.645,8.645,0,0,1,1.222-2.157.948.948,0,0,1,1.124-.164,10.174,10.174,0,0,0,4.884,1.81c.161.006.321.007.477,0,1.835-.044,2.945-.74,2.921-1.912-.02-1.032-1.474-1.635-3.791-2.072-3.694-.7-6.667-1.914-6.667-5.63m33.562,5.1c-2.605.034-4.994.746-5.063,2.782,0,1.616,1.31,2.409,3.149,2.305a4.7,4.7,0,0,0,3.7-1.951,7.571,7.571,0,0,0,.239-2.386c0-.128-.257-.371-.368-.417a4.207,4.207,0,0,0-1.662-.334m-8.668-8.2a10.536,10.536,0,0,1,7.483-2.7c5.08.106,7.764,2.487,8.014,8.184.1,2.349-.068,8.9-.108,10.536-.006.234-.085.4-.4.4-.837.034-2.769.02-3.657.009-.448-.022-.5-.244-.506-.477,0-.152-.017-.6-.026-.972a.148.148,0,0,0-.235-.14,7.119,7.119,0,0,1-5.219,1.887c-3.154,0-6.3-1.856-6.289-5.53.01-3.764,2.678-5.62,5.61-6.058a11.4,11.4,0,0,1,5.6.606c.1.041.312-.018.314-.164a11.045,11.045,0,0,0-.109-1.827c-.235-1.1-1.156-1.992-3.09-2.231a5.951,5.951,0,0,0-1.2-.033,11.261,11.261,0,0,0-4.154,1.769.49.49,0,0,1-.554-.089,22.985,22.985,0,0,1-1.66-2.537.593.593,0,0,1,.194-.638h0ZM219.749,43.5a9.314,9.314,0,0,1,9.565-9.716c3.705-.024,6.4,1.656,6.872,2.448a.6.6,0,0,1-.02.529,18.416,18.416,0,0,1-1.671,2.667c-.24.309-.5.044-.8-.158a7.9,7.9,0,0,0-4.016-1.247c-2.856,0-4.983,1.959-4.959,5.562.022,3.457,2.059,5.358,4.969,5.427a5.889,5.889,0,0,0,3.788-1.552c.249-.217.507-.109.791.114a22.794,22.794,0,0,1,1.8,2.058.592.592,0,0,1-.031.8,8.412,8.412,0,0,1-6.611,2.825c-6.448.045-9.646-4.488-9.676-9.756m30.776,9.519c.3-.023,3.532-.468,4.523-.7a.286.286,0,0,0,.2-.468c-.554-.83-2.009-3.187-3.533-5.3-1.4-1.94-2.88-3.647-3.357-4.3a.31.31,0,0,1,.017-.44c.909-.89,4.712-4.618,6.142-6.158.554-.6.221-.857-.249-1-.908-.271-2.377-.608-3.212-.784a1.138,1.138,0,0,0-1.084.268c-1.43,1.333-5.792,5.712-7.095,7.021-.234.236-.371.184-.372-.154-.011-2.524-.06-13.328-.151-15.1a.517.517,0,0,0-.448-.422c-.819-.043-2.888-.055-3.7-.007a.578.578,0,0,0-.467.455c-.188,2.842.08,23.7.191,26.619a.393.393,0,0,0,.365.386c.813.047,2.825.044,3.764.026.462,0,.519-.325.519-.325l.07-5.6a.927.927,0,0,1,.125-.331c.331-.357,1.247-1.338,1.638-1.718a.218.218,0,0,1,.337.044c.464.626,1.787,2.661,3.014,4.479,1.127,1.67,2.179,3.152,2.253,3.256a.541.541,0,0,0,.517.247h0ZM195.6,53c.284.009,2.439.007,3.394.006a.473.473,0,0,0,.5-.452c.2-4.091.116-23.57-.012-26.646-.011-.266-.124-.366-.306-.39a16.537,16.537,0,0,0-3.895.111.3.3,0,0,0-.237.292c-.183,7.928-.059,26.207-.021,26.553A.527.527,0,0,0,195.6,53Z" transform="translate(-134.899 -25.444)" fill="#004094"/>
  <path id="Path_361" data-name="Path 361" d="M4.493,60.293a2.943,2.943,0,0,1-2.868-2.016q-.023-.07-.043-.141a3.084,3.084,0,0,1,2-3.766l25.2-8.441a3.414,3.414,0,0,1,.92-.134,3.019,3.019,0,0,1,2.944,2.059l.038.122a3.023,3.023,0,0,1-2.1,3.589L5.517,60.119a3.26,3.26,0,0,1-1.023.174Z" transform="translate(-1.464 -40.875)" fill="#004094"/>
  <path id="Path_362" data-name="Path 362" d="M21.828,111.187a2.94,2.94,0,0,1-2.877-1.988q-.023-.069-.044-.14a3.1,3.1,0,0,1,1.993-3.8l25.2-8.519a3.245,3.245,0,0,1,1-.168,3.045,3.045,0,0,1,2.937,2.041l.039.128a3.188,3.188,0,0,1-.384,2.562,4.225,4.225,0,0,1-1.5,1.055L22.9,111a3.47,3.47,0,0,1-1.07.183Z" transform="translate(-14.599 -79.377)" fill="#004094"/>
  <path id="Path_363" data-name="Path 363" d="M81.965,59.469A3.093,3.093,0,0,1,79,57.36L70.594,32.381l-.042-.14a3.1,3.1,0,0,1,5.915-1.836l8.409,24.977.024.08a3.1,3.1,0,0,1-2.934,4.007Z" transform="translate(-53.761 -27.605)" fill="#004094"/>
  <path id="Path_364" data-name="Path 364" d="M30.253,76.882a3.1,3.1,0,0,1-2.963-2.11L18.883,49.794a3.093,3.093,0,0,1,1.946-3.923,3.133,3.133,0,0,1,.963-.161,3.093,3.093,0,0,1,2.963,2.108L33.162,72.8a3.1,3.1,0,0,1-2.91,4.085h0Z" transform="translate(-14.549 -40.811)" fill="#004094"/>
  <path id="Path_365" data-name="Path 365" d="M94.963,109.849l5.864-2-1.917-5.692-5.87,1.984Z" transform="translate(-70.904 -83.61)" fill="#004094"/>
  <path id="Path_366" data-name="Path 366" d="M43.287,127.367l5.863-2-1.931-5.736-5.869,1.984Z" transform="translate(-31.709 -96.861)" fill="#004094"/>
  <path id="Path_367" data-name="Path 367" d="M77.75,58.77l5.864-2L81.72,51.142,75.845,53.11Z" transform="translate(-57.866 -44.93)" fill="#004094"/>
  <path id="Path_368" data-name="Path 368" d="M26.038,76.175l5.864-2-1.918-5.7L24.11,70.443Z" transform="translate(-18.636 -58.074)" fill="#004094"/>
</svg>
