<svg xmlns="http://www.w3.org/2000/svg" width="25.742" height="25.742" viewBox="0 0 25.742 25.742">
  <g id="Group_8298" data-name="Group 8298" transform="translate(25.742) rotate(90)">
    <g id="Group_8295" data-name="Group 8295">
      <g id="Group_8294" data-name="Group 8294">
        <path id="Path_3408" data-name="Path 3408" d="M12.871,0A12.871,12.871,0,1,0,25.742,12.871,12.885,12.885,0,0,0,12.871,0Zm0,23.748A10.877,10.877,0,1,1,23.748,12.871,10.89,10.89,0,0,1,12.871,23.748Z" fill="#064094"/>
      </g>
    </g>
    <g id="Group_8297" data-name="Group 8297" transform="translate(6.948 8.972)">
      <g id="Group_8296" data-name="Group 8296">
        <path id="Path_3409" data-name="Path 3409" d="M149.813,183.722l-4.985-4.985a1,1,0,0,0-1.406,0l-4.985,4.985a1,1,0,0,0,1.406,1.406l4.277-4.277,4.287,4.277a.994.994,0,0,0,1.406-1.406Z" transform="translate(-138.197 -178.447)" fill="#064094"/>
      </g>
    </g>
  </g>
</svg>
