<svg id="Group_62" data-name="Group 62" xmlns="http://www.w3.org/2000/svg" width="39.541" height="43.159" viewBox="0 0 39.541 43.159">
  <path id="Path_348" data-name="Path 348" d="M515.218,265.3a2.459,2.459,0,0,1-.708-1.859c.029-5.016.015-10.032.013-15.048,0-3.029-1.5-4.531-4.527-4.534-1.462,0-2.923,0-4.471,0a3.186,3.186,0,0,0-2.1-3.629H489.61a3.132,3.132,0,0,0-2.037,3.558c-.338.027-.608.067-.879.069-1.437.006-2.875-.017-4.312.011a3.806,3.806,0,0,0-3.771,3.493,12.223,12.223,0,0,0-.038,1.245q0,14.945,0,29.893c0,2.891.594,3.8,3.175,4.889H508.6a25.6,25.6,0,0,0,4.483-1.747A10.642,10.642,0,0,0,515.218,265.3Zm-24-21.426h10.638v3.495H491.218Zm7.92,35.82a6.251,6.251,0,0,1-.706.084c-5.114.006-10.228-.01-15.34.019-.756.006-.976-.209-.975-.975q.038-15.244,0-30.488c0-.679.161-.99.9-.969,1.466.042,2.931.011,4.466.011.055.56.069.974.142,1.379a2.56,2.56,0,0,0,2.593,2.223q6.278.023,12.558,0a2.69,2.69,0,0,0,2.736-2.534c.03-.313.006-.631.006-1.063,1.657,0,3.247,0,4.836,0,.654,0,.547.486.547.89q.006,4.745,0,9.491v4.571c-5.643-1.341-10.236.086-13.078,5.26C495.537,271.775,496.28,275.851,499.138,279.7Zm8.258.088a7.119,7.119,0,0,1-7.255-7.184,7.2,7.2,0,0,1,7.157-7.218,7.294,7.294,0,0,1,7.241,7.174A7.19,7.19,0,0,1,507.4,279.785Z" transform="translate(-478.571 -240.232)" fill="#4886fc"/>
  <path id="Path_349" data-name="Path 349" d="M505.617,290.411l.28,0h.129c-.044,0-.086,0-.129,0C505.8,290.407,505.711,290.409,505.617,290.411Zm-1.187.008c.255.008.51.006.767,0C504.94,290.422,504.685,290.426,504.43,290.418Z" transform="translate(-495.171 -272.441)" fill="#4886fc"/>
  <path id="Path_350" data-name="Path 350" d="M511.2,302.309a1.721,1.721,0,0,1-1.878,1.826q-4.362.026-8.726,0a1.763,1.763,0,1,1-.017-3.514c1.471-.019,2.94-.006,4.412-.006,1.439,0,2.876-.011,4.314,0C510.493,300.634,511.172,301.256,511.2,302.309Z" transform="translate(-491.476 -278.991)" fill="#4886fc"/>
  <path id="Path_351" data-name="Path 351" d="M539.512,282.174c.011,1.12-.708,1.786-2,1.811-1.116.021-2.235,0-3.351,0s-2.235.015-3.353,0a1.809,1.809,0,1,1,.044-3.581q3.306-.02,6.61,0C538.736,280.411,539.5,281.09,539.512,282.174Z" transform="translate(-510.793 -266.013)" fill="#4886fc"/>
  <path id="Path_352" data-name="Path 352" d="M504.448,322.394a1.855,1.855,0,0,1-2.078,1.765c-1.118.011-2.237,0-3.353,0s-2.236.015-3.353,0a1.744,1.744,0,0,1-1.955-1.759,1.782,1.782,0,0,1,2-1.819q3.352-.023,6.706,0A1.837,1.837,0,0,1,504.448,322.394Z" transform="translate(-488.289 -291.803)" fill="#4886fc"/>
  <path id="Path_353" data-name="Path 353" d="M505.807,282.127a1.693,1.693,0,0,1-1.686,1.82c-.238.019-.476.025-.716.025q-.236,0-.472-.006l-.105,0c-.123,0-.244-.006-.366-.006-.042,0-.084,0-.127,0h-.129l-.28,0-.42.008c-.257.006-.512.008-.767,0-.117,0-.234-.01-.351-.019a1.753,1.753,0,0,1-1.707-1.82,1.73,1.73,0,0,1,1.7-1.728c1.241-.058,2.49-.056,3.733,0A1.7,1.7,0,0,1,505.807,282.127Z" transform="translate(-491.48 -265.99)" fill="#4886fc"/>
  <path id="Path_354" data-name="Path 354" d="M557.224,323.768q-1.669,1.715-3.386,3.384a1.775,1.775,0,0,1-2.7-.023c-.533-.506-1.049-1.03-1.556-1.559a1.819,1.819,0,0,1-.146-2.636,1.863,1.863,0,0,1,2.651.106c.119.1.232.213.47.431.748-.773,1.44-1.521,2.169-2.237a1.742,1.742,0,0,1,2.624-.107A1.813,1.813,0,0,1,557.224,323.768Z" transform="translate(-523.742 -291.811)" fill="#4886fc"/>
</svg>
