<svg xmlns="http://www.w3.org/2000/svg" width="20.945" height="17.245" viewBox="0 0 20.945 17.245">
  <path id="twitter_icon" data-name="twitter icon" d="M941.2,3345.564a8.479,8.479,0,0,1-2.464.685,4.36,4.36,0,0,0,1.889-2.408,8.555,8.555,0,0,1-2.726,1.057,4.271,4.271,0,0,0-3.143-1.372,4.323,4.323,0,0,0-4.3,4.352,4.471,4.471,0,0,0,.11.992,12.144,12.144,0,0,1-8.856-4.547,4.39,4.39,0,0,0,1.331,5.81,4.236,4.236,0,0,1-1.947-.544v.056a4.34,4.34,0,0,0,3.45,4.268,4.278,4.278,0,0,1-1.942.075,4.315,4.315,0,0,0,4.014,3.023,8.557,8.557,0,0,1-5.336,1.862,1.365,1.365,0,0,1-1.025-.06,12.047,12.047,0,0,0,6.585,1.958,12.226,12.226,0,0,0,12.227-12.382c0-.19,0-.377-.012-.564A8.783,8.783,0,0,0,941.2,3345.564Z" transform="translate(-920.255 -3343.525)" fill="#fff"/>
</svg>
