<svg id="Booking.com_logo" xmlns="http://www.w3.org/2000/svg" width="186.019" height="30.987" viewBox="0 0 186.019 30.987">
  <path id="logo_2_" d="M87.962,121.53a2.83,2.83,0,1,1-2.83-2.83A2.832,2.832,0,0,1,87.962,121.53Zm-43.137,12.98a8.588,8.588,0,0,1-8.93,8.832,8.833,8.833,0,1,1,0-17.665A8.588,8.588,0,0,1,44.825,134.511Zm-4.782,0c0-2.781-1.708-4.685-4.148-4.685s-4.148,1.952-4.148,4.685c0,2.781,1.708,4.685,4.148,4.685C38.384,139.2,40.043,137.292,40.043,134.511Zm36.794.439h0a3.517,3.517,0,0,0-.683-.927l-.146-.146.146-.146a6.97,6.97,0,0,0,.732-.878l4.538-6.783H75.909l-3.416,5.27a1.317,1.317,0,0,1-1.171.439h-.781v-10c0-2-1.269-2.294-2.586-2.294H65.662V143.1h4.88v-7.076h.439c.537,0,.927.049,1.122.39l2.684,5.075a2.724,2.724,0,0,0,2.928,1.61h3.757l-2.781-4.636Zm23.716-9.32h0a6.693,6.693,0,0,0-4.977,2.05l-.293.293-.1-.39c-.244-1.025-1.122-1.562-2.489-1.562H90.5V143.05h4.88v-7.856a6.707,6.707,0,0,1,.293-2.05,3.975,3.975,0,0,1,3.953-2.977c1.513,0,2.1.781,2.1,2.879v7.417a2.261,2.261,0,0,0,2.586,2.586H106.6V132.217C106.652,127.923,104.554,125.629,100.552,125.629Zm-15.371.39H82.887V139.2h0v3.855H87.67V128.606C87.718,126.849,86.889,126.02,85.181,126.02Zm-21.276,8.491a8.588,8.588,0,0,1-8.93,8.832,8.833,8.833,0,1,1,0-17.665A8.588,8.588,0,0,1,63.905,134.511Zm-4.782,0c0-2.781-1.708-4.685-4.148-4.685s-4.148,1.952-4.148,4.685c0,2.781,1.708,4.685,4.148,4.685C57.464,139.2,59.123,137.292,59.123,134.511ZM125,125.971v15.615c0,5.953-4.831,8.1-8.979,8.1a13.094,13.094,0,0,1-5.953-1.464l-.342-.2.537-1.415.39-.976a1.462,1.462,0,0,1,2.05-.976,9.568,9.568,0,0,0,3.269.586c2.684,0,4.148-1.269,4.148-3.513v-.488l-.39.293a6.022,6.022,0,0,1-3.757,1.074c-4.538,0-7.71-3.562-7.71-8.637s3.074-8.491,7.613-8.491a6.619,6.619,0,0,1,4.489,1.464l.244.2.146-.244a2.081,2.081,0,0,1,2-1.025H125Zm-4.782,8.149c0-3.806-2.05-4.245-3.611-4.245-3.123,0-3.367,3.123-3.367,4.1,0,2.147.927,4.489,3.611,4.489C118.412,138.414,120.218,137.682,120.218,134.12Zm-94.619,2c0,4.2-3.172,6.881-8.149,6.881H9.3V121.969a2.47,2.47,0,0,1,2.391-2.44h5.661c4.441,0,7.32,2.391,7.32,6.1a5.653,5.653,0,0,1-1.952,4.441l-.634.537.732.39h0A5.562,5.562,0,0,1,25.6,136.121Zm-11.76-9.906h0v2.733H17.4a2.66,2.66,0,0,0,2.733-2.879,2.542,2.542,0,0,0-2.781-2.781h-2c-1.025.049-1.464.586-1.464,1.659v1.269Zm7.125,9.564a2.972,2.972,0,0,0-3.172-3.172H15.107c-.878.1-1.269.634-1.269,1.659V139h3.953A2.961,2.961,0,0,0,20.963,135.779Z" transform="translate(-9.3 -118.7)" fill="#bdc2de"/>
  <path id="logo_1_" d="M255.961,147.686a2.83,2.83,0,1,1-2.83-2.83A2.832,2.832,0,0,1,255.961,147.686Zm35.476-5.9a8.906,8.906,0,1,1-8.93-8.832A8.588,8.588,0,0,1,291.437,141.781Zm-4.782,0c0-2.781-1.708-4.685-4.148-4.685s-4.148,1.952-4.148,4.685c0,2.781,1.708,4.685,4.148,4.685C285,146.466,286.655,144.563,286.655,141.781Zm26.449-8.832Zm0,0a6.684,6.684,0,0,0-5.221,2.538l-.342.439-.293-.488a4.779,4.779,0,0,0-4.587-2.489,6.352,6.352,0,0,0-4.489,2l-.439.488-.2-.634c-.244-.927-1.074-1.464-2.391-1.464H293.1v16.982h4.636v-7.515a9.736,9.736,0,0,1,.244-2c.439-1.806,1.659-3.757,3.709-3.562,1.269.1,1.854,1.074,1.854,2.977v10.052h4.685v-7.515a8.427,8.427,0,0,1,.244-2.05c.39-1.708,1.659-3.513,3.611-3.513,1.415,0,1.952.83,1.952,2.977v7.564a2.162,2.162,0,0,0,2.489,2.489h2.2V139.39C318.764,135.145,316.861,132.949,313.1,132.949Zm-42.21,11.468h0a7.209,7.209,0,0,1-4.636,2.1,4.545,4.545,0,0,1-4.831-4.733,4.489,4.489,0,0,1,4.538-4.831c.878,0,1.854.293,2,.83v.1a1.761,1.761,0,0,0,1.659,1.269h2.538V136.9c0-2.928-3.709-4-6.246-4-5.368,0-9.272,3.757-9.272,8.881s3.855,8.881,9.174,8.881a9.488,9.488,0,0,0,7.125-3.074l.146-.146-2-3.318Z" transform="translate(-132.697 -125.971)" fill="#bdc2de"/>
</svg>
