<svg xmlns="http://www.w3.org/2000/svg" width="133.88" height="40.154" viewBox="0 0 133.88 40.154">
  <path id="spotify-1" d="M94.507,1369.15a20.077,20.077,0,1,0,20.077,20.077,20.077,20.077,0,0,0-20.077-20.077h0Zm9.207,28.957a1.251,1.251,0,0,1-1.721.416c-4.715-2.881-10.649-3.532-17.637-1.936a1.251,1.251,0,1,1-.557-2.439c7.648-1.749,14.208-1,19.5,2.238a1.251,1.251,0,0,1,.415,1.721h0Zm2.457-5.466a1.566,1.566,0,0,1-2.153.515c-5.4-3.317-13.623-4.277-20.006-2.34a1.565,1.565,0,1,1-.91-3c7.291-2.212,16.356-1.141,22.553,2.668a1.565,1.565,0,0,1,.515,2.152h0Zm.211-5.693c-6.472-3.843-17.147-4.2-23.325-2.322a1.878,1.878,0,1,1-1.09-3.594c7.092-2.153,18.881-1.737,26.331,2.685a1.878,1.878,0,0,1-1.916,3.23h0Zm22.67.736c-3.466-.827-4.084-1.407-4.084-2.626,0-1.152,1.084-1.927,2.7-1.927a7.881,7.881,0,0,1,4.738,1.8.227.227,0,0,0,.171.042.224.224,0,0,0,.15-.093l1.693-2.386a.227.227,0,0,0-.043-.309,10.241,10.241,0,0,0-6.657-2.306c-3.743,0-6.357,2.246-6.357,5.46,0,3.446,2.255,4.667,6.153,5.609,3.317.764,3.877,1.4,3.877,2.548,0,1.268-1.132,2.056-2.954,2.056a7.961,7.961,0,0,1-5.52-2.28.237.237,0,0,0-.167-.054.225.225,0,0,0-.156.08l-1.9,2.259a.225.225,0,0,0,.023.315,11.314,11.314,0,0,0,7.641,2.931c4.033,0,6.639-2.2,6.639-5.615.007-2.879-1.717-4.474-5.938-5.5Zm15.07-3.419a5.438,5.438,0,0,0-4.365,2.1v-1.588a.227.227,0,0,0-.227-.228h-3.1a.227.227,0,0,0-.227.228v17.646a.227.227,0,0,0,.227.228h3.1a.227.227,0,0,0,.227-.228v-5.57a5.575,5.575,0,0,0,4.365,1.976c3.248,0,6.537-2.5,6.537-7.281s-3.285-7.282-6.533-7.282Zm2.927,7.282c0,2.434-1.5,4.133-3.646,4.133a4.155,4.155,0,0,1,0-8.266c2.112,0,3.647,1.737,3.647,4.133Zm12.038-7.282a7.3,7.3,0,1,0,7.434,7.282,7.32,7.32,0,0,0-7.434-7.282Zm0,11.439a3.948,3.948,0,0,1-3.9-4.158,3.854,3.854,0,0,1,3.851-4.108,3.96,3.96,0,0,1,3.928,4.16,3.865,3.865,0,0,1-3.877,4.106Zm16.367-11.155H172.04v-3.492a.227.227,0,0,0-.227-.227h-3.1a.228.228,0,0,0-.228.227v3.492H166.99a.227.227,0,0,0-.226.228v2.667a.227.227,0,0,0,.226.227h1.492v6.9c0,2.79,1.388,4.2,4.126,4.2a5.662,5.662,0,0,0,2.908-.724.226.226,0,0,0,.115-.2v-2.54a.228.228,0,0,0-.329-.2,3.911,3.911,0,0,1-1.822.44c-1,0-1.44-.452-1.44-1.466v-6.415h3.416a.227.227,0,0,0,.226-.228v-2.667a.22.22,0,0,0-.223-.228Zm11.9.014v-.429c0-1.262.484-1.824,1.569-1.824a5.231,5.231,0,0,1,1.749.323.227.227,0,0,0,.3-.216V1379.8a.227.227,0,0,0-.161-.218,8.522,8.522,0,0,0-2.58-.371c-2.867,0-4.382,1.614-4.382,4.667v.657h-1.491a.228.228,0,0,0-.228.227v2.681a.228.228,0,0,0,.228.228h1.491v10.647a.227.227,0,0,0,.226.228h3.1a.228.228,0,0,0,.228-.228v-10.646h2.9l4.439,10.644c-.5,1.118-1,1.341-1.676,1.341a3.58,3.58,0,0,1-1.712-.486.233.233,0,0,0-.181-.017.229.229,0,0,0-.134.123l-1.052,2.308a.226.226,0,0,0,.1.294,6.535,6.535,0,0,0,3.315.849c2.292,0,3.559-1.068,4.676-3.94l5.385-13.915a.227.227,0,0,0-.211-.31h-3.231a.228.228,0,0,0-.215.152l-3.31,9.455-3.626-9.461a.227.227,0,0,0-.212-.146h-5.3Zm-6.9-.014h-3.1a.228.228,0,0,0-.228.228v13.542a.228.228,0,0,0,.228.228h3.1a.228.228,0,0,0,.228-.228v-13.541a.227.227,0,0,0-.228-.228Zm-1.534-6.166a2.226,2.226,0,1,0,2.226,2.225,2.226,2.226,0,0,0-2.226-2.225Zm27.192,10.52a2.19,2.19,0,1,1,2.2-2.2,2.176,2.176,0,0,1-2.2,2.2Zm.012-4.163a1.972,1.972,0,1,0,1.955,1.966,1.953,1.953,0,0,0-1.955-1.966Zm.484,2.191.618.865h-.521l-.556-.794h-.478v.794h-.436V1385.5h1.022c.533,0,.883.272.883.731a.681.681,0,0,1-.53.7Zm-.369-1.035h-.569v.725h.569c.284,0,.453-.139.453-.363s-.17-.362-.453-.362Z" transform="translate(-74.43 -1369.15)" fill="#bdc2de"/>
</svg>
