<svg id="netflix-2" xmlns="http://www.w3.org/2000/svg" width="100.757" height="27.335" viewBox="0 0 100.757 27.335">
  <path id="Path_359" data-name="Path 359" d="M86.011,25.595q2.1.2,4.2.433L93.305,18.4l2.936,8.332q2.26.283,4.514.594l-5.148-14.61L100.757,0H96.4L96.351.06l-2.782,6.87L91.126,0H86.82l4.446,12.617L86.011,25.595Zm-3.257-.3V0h-4.3V24.941q2.154.166,4.3.355M50.417,23.881c1.162,0,2.323.009,3.482.018V14.605H59.07V10.648H53.9V3.961h5.956V0H49.578V23.885c.279,0,.56,0,.84,0m-13.365.242q2.151-.077,4.307-.129V3.961h4.024V0H33.028V3.961h4.024V24.123ZM4.129,26.79V11.719l5.1,14.463q2.351-.264,4.711-.5V0H9.808V15.61L4.307,0H0V27.332H.026q2.047-.283,4.1-.542M28.877,3.96V0H18.6V25.256q5.13-.443,10.27-.743V20.547q-2.98.173-5.948.4V14.607h5.171v-3.96H22.921V3.96Zm39.509,16.4V0H64.063v24.14q5.159.189,10.279.524V20.694q-2.972-.192-5.956-.336" transform="translate(0 0.003)" fill="#bdc2de"/>
</svg>
