<svg xmlns="http://www.w3.org/2000/svg" width="146.877" height="22.379" viewBox="0 0 146.877 22.379">
  <g id="Toshiba_logo" opacity="0.63">
    <path id="a" d="M350.426,140.671l-6.546-21.6h-9.015l-6.545,21.6h6.345l1.156-4h7.1l1.161,4h6.344Zm-13.23-8.8,2.16-7.463h.036l2.16,7.463Z" transform="translate(-203.549 -118.68)" fill="#bdc2de"/>
    <path id="o" d="M80.87,118.1c-6.514,0-9.661,1.146-10.1,7.026-.109,1.4-.13,2.836-.13,4.162s.022,2.767.13,4.166c.444,5.878,3.591,7.026,10.1,7.026s9.662-1.147,10.109-7.026c.106-1.4.127-2.834.127-4.166s-.021-2.764-.127-4.162C90.533,119.245,87.384,118.1,80.87,118.1Zm4.041,13.6c-.163,3.334-1.479,3.724-4.041,3.724s-3.876-.39-4.041-3.724c-.026-.519-.055-1.222-.055-2.412s.029-1.888.055-2.408c.165-3.334,1.481-3.723,4.041-3.723s3.877.389,4.041,3.723c.026.52.058,1.221.058,2.408S84.937,131.179,84.911,131.7Z" transform="translate(-49.203 -118.099)" fill="#bdc2de"/>
    <path id="t" d="M17.194,124.478h6.458v16.216h6.459V124.478h6.458v-5.385H17.194Z" transform="translate(-17.194 -118.694)" fill="#bdc2de"/>
    <rect id="i" width="6.131" height="21.602" transform="translate(92.984 0.389)" fill="#bdc2de"/>
    <path id="h" d="M200.814,126.955h-7.082v-7.887h-6.1v21.6h6.1V132.34h7.082v8.331h6.094v-21.6h-6.094Z" transform="translate(-119.283 -118.679)" fill="#bdc2de"/>
    <path id="b" d="M292.623,129.378h0c2.715-.694,3.51-2.316,3.51-4.66,0-4.747-2.986-5.651-7.233-5.651H277.894v21.6h11.552c5.319,0,7.108-2.291,7.108-5.815C296.552,132.4,295.991,130.23,292.623,129.378Zm-8.636-5.371h4.226A1.583,1.583,0,0,1,290,125.789a1.632,1.632,0,0,1-1.787,1.743h-4.226Zm4.226,11.721h-4.226V131.8h4.226c1.709,0,2.064.748,2.064,1.964A1.813,1.813,0,0,1,288.213,135.728Z" transform="translate(-173.345 -118.679)" fill="#bdc2de"/>
    <path id="s" d="M146.7,127.886c-1.52-.9-5.785-1.033-7.95-1.172-1.576-.1-2.176-.682-2.176-2.07,0-1.819,1.732-1.887,3.231-1.887a3.905,3.905,0,0,1,2.7.646c.233.237.519.6.53,1.868h5.8c0-2.5-.079-5.185-2.776-6.428-2.144-.988-10.114-.988-12.145,0-1.968.957-3.332,2.329-3.332,6.239,0,2.3.61,4,1.785,4.872,1.724,1.281,3.4,1.412,8.029,1.657,1.867.1,2.879.465,2.879,2.071,0,2.035-1.811,2.035-3.463,2.035-1.717,0-2.234-.144-2.813-.58-.509-.387-.643-1.087-.648-2.135h-5.811c0,2.976.057,5.417,2.866,6.641,2.51,1.1,10.23,1.1,12.541.079,2-.885,3.442-2.065,3.442-6.088C149.388,130.852,148.835,129.146,146.7,127.886Z" transform="translate(-85.083 -118.101)" fill="#bdc2de"/>
  </g>
</svg>
