<svg id="slack" xmlns="http://www.w3.org/2000/svg" width="110.397" height="33.071" viewBox="0 0 110.397 33.071">
  <path id="Path_360" data-name="Path 360" d="M177.661,38.418c0-3.284,2.394-5.577,6.745-5.577a10.827,10.827,0,0,1,6,1.678.767.767,0,0,1,.289.941c-.231.576-.654,1.443-.958,2.006a.655.655,0,0,1-.86.168,10.905,10.905,0,0,0-3.477-1.276,7.4,7.4,0,0,0-.963-.042,2.382,2.382,0,0,0-2.369,1.26,1.493,1.493,0,0,0-.106.5c-.031,1.118,1.526,1.523,3.412,1.847,3.506.6,6.158,1.628,6.158,5.237,0,3.064-2.435,5.833-7.207,5.749a10.451,10.451,0,0,1-6.573-2.158A.983.983,0,0,1,177.5,47.7a7.926,7.926,0,0,1,1.12-1.977.87.87,0,0,1,1.031-.15,9.328,9.328,0,0,0,4.478,1.66c.148.005.294.006.437,0,1.682-.041,2.7-.679,2.678-1.753-.018-.947-1.352-1.5-3.476-1.9-3.387-.638-6.112-1.754-6.112-5.162m30.771,4.676c-2.389.031-4.579.684-4.642,2.551,0,1.481,1.2,2.209,2.887,2.114a4.31,4.31,0,0,0,3.4-1.788,6.941,6.941,0,0,0,.219-2.188c0-.117-.235-.34-.337-.382a3.857,3.857,0,0,0-1.523-.306m-7.947-7.521a9.66,9.66,0,0,1,6.861-2.473c4.658.1,7.118,2.28,7.347,7.5.094,2.154-.062,8.162-.1,9.659-.006.215-.078.363-.368.369-.767.031-2.539.019-3.353.008-.411-.02-.458-.224-.464-.437,0-.14-.016-.554-.024-.891a.136.136,0,0,0-.216-.128,6.527,6.527,0,0,1-4.785,1.73c-2.892,0-5.775-1.7-5.766-5.07.009-3.451,2.455-5.152,5.143-5.554a10.451,10.451,0,0,1,5.13.555c.094.038.286-.017.287-.15a10.127,10.127,0,0,0-.1-1.675c-.216-1.012-1.06-1.826-2.833-2.045a5.456,5.456,0,0,0-1.1-.031,10.325,10.325,0,0,0-3.809,1.622.449.449,0,0,1-.508-.082,21.075,21.075,0,0,1-1.522-2.326.544.544,0,0,1,.178-.585h0ZM216.229,42A8.54,8.54,0,0,1,225,33.087c3.4-.022,5.865,1.518,6.3,2.244a.553.553,0,0,1-.018.485,16.884,16.884,0,0,1-1.532,2.445c-.22.283-.46.041-.738-.144a7.246,7.246,0,0,0-3.682-1.143c-2.619,0-4.569,1.8-4.547,5.1.02,3.17,1.888,4.912,4.556,4.975a5.4,5.4,0,0,0,3.473-1.423c.228-.2.465-.1.725.1a20.9,20.9,0,0,1,1.653,1.887.543.543,0,0,1-.029.733,7.712,7.712,0,0,1-6.061,2.59c-5.911.041-8.844-4.115-8.871-8.944m28.217,8.727c.277-.021,3.238-.429,4.147-.638a.262.262,0,0,0,.18-.429c-.507-.761-1.842-2.922-3.239-4.857-1.285-1.779-2.64-3.343-3.078-3.945a.284.284,0,0,1,.015-.4c.833-.816,4.32-4.234,5.631-5.646.507-.549.2-.785-.228-.914-.833-.248-2.179-.558-2.945-.719a1.043,1.043,0,0,0-.994.246c-1.311,1.222-5.311,5.237-6.5,6.437-.215.217-.34.168-.341-.141-.01-2.314-.055-12.219-.138-13.849a.474.474,0,0,0-.411-.387c-.751-.039-2.648-.051-3.4-.007a.53.53,0,0,0-.428.418c-.172,2.605.073,21.73.176,24.405a.36.36,0,0,0,.335.354c.746.043,2.59.04,3.451.024.424,0,.476-.3.476-.3l.064-5.132a.85.85,0,0,1,.114-.3c.3-.327,1.143-1.227,1.5-1.575a.2.2,0,0,1,.309.041c.425.574,1.639,2.44,2.763,4.106,1.033,1.531,2,2.89,2.065,2.986a.5.5,0,0,0,.474.226h0Zm-50.358-.018c.26.009,2.236.006,3.111.005a.434.434,0,0,0,.458-.414c.186-3.751.106-21.61-.011-24.43-.01-.244-.114-.335-.281-.357a15.161,15.161,0,0,0-3.571.1.275.275,0,0,0-.217.267c-.168,7.269-.055,24.027-.019,24.345a.483.483,0,0,0,.53.483Z" transform="translate(-138.436 -25.444)" fill="#bdc2de"/>
  <path id="Path_361" data-name="Path 361" d="M4.241,59.087a2.7,2.7,0,0,1-2.629-1.849q-.021-.064-.039-.129A2.827,2.827,0,0,1,3.4,53.656l23.1-7.739a3.13,3.13,0,0,1,.844-.123,2.768,2.768,0,0,1,2.7,1.888l.035.112a2.771,2.771,0,0,1-1.928,3.291L5.18,58.927a2.989,2.989,0,0,1-.938.16Z" transform="translate(-1.464 -41.284)" fill="#bdc2de"/>
  <path id="Path_362" data-name="Path 362" d="M21.575,109.972a2.7,2.7,0,0,1-2.638-1.823q-.021-.064-.04-.128a2.847,2.847,0,0,1,1.828-3.487l23.1-7.81a2.975,2.975,0,0,1,.917-.154,2.792,2.792,0,0,1,2.693,1.871l.035.117a2.923,2.923,0,0,1-.352,2.349,3.874,3.874,0,0,1-1.374.968L22.557,109.8a3.181,3.181,0,0,1-.981.168Z" transform="translate(-14.947 -80.807)" fill="#bdc2de"/>
  <path id="Path_363" data-name="Path 363" d="M81.006,56.876a2.836,2.836,0,0,1-2.716-1.933l-7.71-22.9-.039-.129a2.84,2.84,0,0,1,5.423-1.683l7.709,22.9.022.074a2.838,2.838,0,0,1-2.69,3.673Z" transform="translate(-55.147 -27.662)" fill="#bdc2de"/>
  <path id="Path_364" data-name="Path 364" d="M29.294,74.289a2.837,2.837,0,0,1-2.717-1.935l-7.708-22.9a2.836,2.836,0,0,1,1.784-3.6,2.872,2.872,0,0,1,.883-.148,2.836,2.836,0,0,1,2.716,1.933l7.708,22.9a2.839,2.839,0,0,1-2.668,3.745h0Z" transform="translate(-14.896 -41.218)" fill="#bdc2de"/>
  <path id="Path_365" data-name="Path 365" d="M94.8,109.209l5.376-1.838-1.757-5.219-5.382,1.819Z" transform="translate(-72.745 -85.153)" fill="#bdc2de"/>
  <path id="Path_366" data-name="Path 366" d="M43.126,126.724l5.375-1.838-1.771-5.259-5.381,1.819Z" transform="translate(-32.511 -98.755)" fill="#bdc2de"/>
  <path id="Path_367" data-name="Path 367" d="M77.592,58.136,82.968,56.3l-1.737-5.158-5.386,1.8Z" transform="translate(-59.361 -45.447)" fill="#bdc2de"/>
  <path id="Path_368" data-name="Path 368" d="M25.878,75.534,31.254,73.7,29.5,68.475l-5.386,1.8Z" transform="translate(-19.091 -58.939)" fill="#bdc2de"/>
</svg>
