<svg id="Dropbox_logo" xmlns="http://www.w3.org/2000/svg" width="162.573" height="32.018" viewBox="0 0 162.573 32.018">
  <path id="Path_354" data-name="Path 354" d="M26.374,116.024l-9.437,6.024,9.437,6.024L16.937,134.1,7.5,128.031l9.437-6.024L7.5,116.024,16.937,110Zm-9.479,19.969,9.437-6.024,9.437,6.024-9.437,6.024Zm9.479-7.962,9.437-6.024-9.437-5.982L35.768,110l9.437,6.024-9.437,6.024,9.437,6.024L35.768,134.1Z" transform="translate(-7.5 -110)" fill="#bdc2de"/>
  <path id="Path_355" data-name="Path 355" d="M114.5,122.1h7.625c4.887,0,8.889,2.823,8.889,9.226v1.348c0,6.488-3.749,9.395-8.721,9.395H114.5Zm4.255,3.623V138.4H122c2.78,0,4.634-1.812,4.634-5.814v-1.053c0-4-1.938-5.814-4.76-5.814Zm14.492.169h3.412l.548,3.749c.632-2.57,2.317-3.918,5.308-3.918h1.053v4.3H141.8c-3.455,0-4.3,1.222-4.3,4.634v7.415h-4.213V125.85h-.042Zm11.206,8.468V133.9c0-5.435,3.455-8.384,8.173-8.384,4.8,0,8.173,2.949,8.173,8.384v.463c0,5.308-3.244,8.173-8.173,8.173C147.4,142.491,144.453,139.668,144.453,134.36Zm12.049-.084v-.421c0-2.991-1.517-4.8-3.918-4.8-2.359,0-3.918,1.643-3.918,4.8v.421c0,2.907,1.517,4.55,3.918,4.55S156.5,137.225,156.5,134.276Zm6.53-8.384h3.5l.421,3.075a5.42,5.42,0,0,1,5.308-3.455c4.129,0,6.825,2.949,6.825,8.426v.463c0,5.308-2.991,8.131-6.825,8.131a5.316,5.316,0,0,1-5.182-2.991v8.173h-4.129l.084-21.822Zm11.8,8.384v-.337c0-3.2-1.643-4.8-3.876-4.8-2.359,0-3.918,1.812-3.918,4.8v.295c0,2.865,1.517,4.676,3.876,4.676C173.311,138.868,174.828,137.309,174.828,134.276Zm10.49,4.845-.337,2.949h-3.623V120.5h4.129v8.3a5.259,5.259,0,0,1,5.266-3.244c3.876.042,6.741,2.7,6.741,8.089v.506c0,5.35-2.7,8.426-6.825,8.426A5.455,5.455,0,0,1,185.318,139.121Zm7.836-5.013v-.421c0-2.949-1.6-4.634-3.876-4.634-2.317,0-3.918,1.854-3.918,4.676v.337c0,2.991,1.559,4.76,3.876,4.76C191.679,138.868,193.154,137.309,193.154,134.107Zm6.109.253V133.9c0-5.435,3.455-8.384,8.173-8.384,4.8,0,8.173,2.949,8.173,8.384v.463c0,5.308-3.328,8.173-8.173,8.173C202.211,142.491,199.262,139.668,199.262,134.36Zm12.091-.084v-.421c0-2.991-1.517-4.8-3.918-4.8-2.359,0-3.918,1.643-3.918,4.8v.421c0,2.907,1.517,4.55,3.918,4.55S211.353,137.225,211.353,134.276Zm9.774-.59-5.687-7.794h4.887l3.244,4.887,3.328-4.887h4.8l-5.772,7.709L232,142.028h-4.76l-3.707-5.35-3.623,5.35h-4.929Z" transform="translate(-69.423 -116.077)" fill="#bdc2de"/>
</svg>
